<svg id="Layer_1" data-name="Layer 1" xmlns="http://www.w3.org/2000/svg" viewBox="0 0 735 852"><path d="M715.1,226.8,366.9,16,19.9,226.8V628.3L367.5,829,715.1,628.3Z" style="fill:#fff"/><path d="M734.9,637.4V213.1l-29.3-16.9L427.8,35.8,367.5,1,307.2,35.8,29.4,196.2.1,213.1V637.3l29.3,16.9L310.7,816.6l56.9,32.8,56.9-32.8L705.8,654.2ZM29.4,621.5V231l50-28.9L367.5,35.8h0L654.7,201.6,705.6,231V621.5L367.5,816.7Z" style="fill:#171730;stroke:#fff"/><path d="M367,633.9l.9-.9h-.3A2.37,2.37,0,0,1,367,633.9Z" style="fill:#e6b35a"/><path d="M105.5,343.9h0C103.7,343.7,104.9,343.8,105.5,343.9Z" style="fill:#fff;opacity:0.8999999761581421;isolation:isolate"/><path d="M105.5,343.9c-1.7-.1-1,0-.4,0h.4C105.9,343.9,106,344,105.5,343.9Z" style="fill:#fff;opacity:0.8999999761581421;isolation:isolate"/><g style="isolation:isolate"><path d="M372.31,806.82l-10-9.36,2-1.14,5.58,5.52,2.08,2c0-.14-.3-1-.76-2.68l-2-7.7,2-1.13,5.49,5.61,1.82,1.84-.61-2.56L376,789.58l1.87-1.08,3,13.41-2,1.14-5.72-5.76-1.55-1.69,2.72,10.07Z" style="fill:#171730"/><path d="M388.14,797.73l-10-9.36,2-1.15,5.58,5.52,2.07,2c0-.13-.29-1-.76-2.68l-2-7.69,2-1.14,5.49,5.61,1.81,1.85-.61-2.57-1.83-7.69,1.88-1.07,3,13.4-2,1.15L389,788.19l-1.55-1.68,2.73,10.06Z" style="fill:#171730"/></g><g style="isolation:isolate"><path d="M404,788.63l-10-9.36,2-1.14,5.58,5.52,2.08,2.05c0-.14-.3-1-.76-2.68l-2-7.7,2-1.14,5.49,5.62,1.82,1.84-.61-2.56-1.83-7.69,1.87-1.08,3,13.41-2,1.14-5.72-5.76-1.55-1.68L406,787.48Z" style="fill:#171730"/></g><g style="isolation:isolate"><path d="M417,781.13l-1.26-2.2,2.19-1.26,1.26,2.2Z" style="fill:#171730"/><path d="M425.07,782.3l-9-15.72,1.75-1,.85,1.48a4.9,4.9,0,0,1,.66-2.11,4.34,4.34,0,0,1,1.64-1.52,5.19,5.19,0,0,1,3-.73,5.28,5.28,0,0,1,2.89,1.15A9.39,9.39,0,0,1,430.3,770a5.5,5.5,0,0,1-2.67,5.37,4.26,4.26,0,0,1-2,.58,4.64,4.64,0,0,1-1.85-.3l3.18,5.53Zm-4-11a5.64,5.64,0,0,0,2.75,2.73,3.14,3.14,0,0,0,2.75-.18,3.24,3.24,0,0,0,1.57-2.36,5.83,5.83,0,0,0-1-3.88,5.73,5.73,0,0,0-2.76-2.74,3.1,3.1,0,0,0-2.75.14,3.2,3.2,0,0,0-1.52,2.4A5.89,5.89,0,0,0,421.09,771.32Z" style="fill:#171730"/><path d="M440.43,762.81l2.13-.9a5.57,5.57,0,0,1-.19,3.71,6,6,0,0,1-2.7,2.83,6,6,0,0,1-4.83.74,7,7,0,0,1-3.94-3.47,7.22,7.22,0,0,1-1.08-5.3,5.76,5.76,0,0,1,2.92-3.78,5.59,5.59,0,0,1,4.62-.59,7.14,7.14,0,0,1,3.95,3.53l.28.52L433.12,765a5,5,0,0,0,2.71,2.26,3.62,3.62,0,0,0,2.95-.37,3.38,3.38,0,0,0,1.48-1.59A4.19,4.19,0,0,0,440.43,762.81Zm-8.11.52,6.34-3.65a4.41,4.41,0,0,0-2-1.73,3.42,3.42,0,0,0-3,.26,3.57,3.57,0,0,0-1.72,2.17A4,4,0,0,0,432.32,763.33Z" style="fill:#171730"/><path d="M454.31,759.7l-.82-1.44a4.07,4.07,0,0,1-2.21,3.52,5.14,5.14,0,0,1-2.92.69,5.79,5.79,0,0,1-3-1.08,8.47,8.47,0,0,1-2.4-2.73,9.28,9.28,0,0,1-1.21-3.41,5.2,5.2,0,0,1,.48-3.1,5.26,5.26,0,0,1,2.11-2.2,4.46,4.46,0,0,1,2.08-.62,4.6,4.6,0,0,1,2,.38l-3.24-5.63,1.92-1.1,9,15.69ZM445,757.52a5.69,5.69,0,0,0,2.79,2.74,3.21,3.21,0,0,0,2.8-.17,3.13,3.13,0,0,0,1.55-2.26,5.52,5.52,0,0,0-.93-3.66,6.11,6.11,0,0,0-2.87-2.91,3.21,3.21,0,0,0-2.84.18,3.05,3.05,0,0,0-1.54,2.28A5.94,5.94,0,0,0,445,757.52Z" style="fill:#171730"/><path d="M459.11,756.94l-6.53-11.36,1.73-1,1,1.72a5.34,5.34,0,0,1,.31-2.29,2.45,2.45,0,0,1,1-1.1,4.45,4.45,0,0,1,2.34-.52l.36,2.17a3.15,3.15,0,0,0-1.65.4,2,2,0,0,0-.91,1,2.39,2.39,0,0,0-.12,1.46,9,9,0,0,0,1,2.44l3.42,5.94Z" style="fill:#171730"/><path d="M462.44,747.47c-1.21-2.11-1.52-4-.93-5.69a6.08,6.08,0,0,1,2.85-3.31,5.88,5.88,0,0,1,4.71-.67,6.73,6.73,0,0,1,3.93,3.39,8.62,8.62,0,0,1,1.32,3.83,5.33,5.33,0,0,1-.79,3.05,6.4,6.4,0,0,1-2.35,2.27,5.84,5.84,0,0,1-4.73.69A7.07,7.07,0,0,1,462.44,747.47Zm2-1.14a5.62,5.62,0,0,0,2.83,2.72,3.52,3.52,0,0,0,3-.29A3.47,3.47,0,0,0,472,746.3a5.68,5.68,0,0,0-1-3.88,5.35,5.35,0,0,0-2.79-2.64,3.66,3.66,0,0,0-4.78,2.74A5.6,5.6,0,0,0,464.42,746.33Z" style="fill:#171730"/><path d="M483.64,737.31l2-.84a5.65,5.65,0,0,1,.17,4,5.33,5.33,0,0,1-2.5,2.92,5.66,5.66,0,0,1-4.63.63,7.16,7.16,0,0,1-3.93-3.56,9.37,9.37,0,0,1-1.24-3.57,4.92,4.92,0,0,1,.67-3.14,6.47,6.47,0,0,1,2.31-2.25,5.47,5.47,0,0,1,3.57-.8,5,5,0,0,1,3,1.79l-1.71,1.37a3.56,3.56,0,0,0-1.94-1.18,2.83,2.83,0,0,0-2,.36,3.43,3.43,0,0,0-1.76,2.41,5.7,5.7,0,0,0,1,3.82,5.87,5.87,0,0,0,2.79,2.82,3.29,3.29,0,0,0,2.89-.27A3.14,3.14,0,0,0,483.9,740,4,4,0,0,0,483.64,737.31Z" style="fill:#171730"/><path d="M486.85,736.49l1.73-1.4a3.06,3.06,0,0,0,1.9,1.24,3.57,3.57,0,0,0,2.4-.56,3.45,3.45,0,0,0,1.66-1.68,1.85,1.85,0,0,0-.09-1.63,1.32,1.32,0,0,0-1.15-.7,9.84,9.84,0,0,0-2.35.47,20.9,20.9,0,0,1-3.47.77,3.3,3.3,0,0,1-1.86-.37,3.4,3.4,0,0,1-1.3-1.28,3.47,3.47,0,0,1-.46-1.61,3.79,3.79,0,0,1,.33-1.62,4.69,4.69,0,0,1,.9-1.27,6.61,6.61,0,0,1,1.54-1.18,7.82,7.82,0,0,1,2.56-1,3.75,3.75,0,0,1,2.1.19,4.6,4.6,0,0,1,1.67,1.38l-1.73,1.34a2.36,2.36,0,0,0-1.53-.94,3.11,3.11,0,0,0-2,.5A3.66,3.66,0,0,0,486,728.7a1.45,1.45,0,0,0,0,1.35,1.22,1.22,0,0,0,.62.54,1.88,1.88,0,0,0,1,.09c.24,0,.9-.2,2-.49a29.37,29.37,0,0,1,3.36-.74,3.37,3.37,0,0,1,1.85.28,3.3,3.3,0,0,1,1.41,1.39,3.69,3.69,0,0,1,.48,2.13,4.22,4.22,0,0,1-.87,2.25,6.55,6.55,0,0,1-2.13,1.84,6.11,6.11,0,0,1-3.9,1A4.94,4.94,0,0,1,486.85,736.49Z" style="fill:#171730"/><path d="M492.79,719.66l-1.27-2.21,1.93-1.11,1.27,2.21Zm7.75,13.47L494,721.77l1.92-1.11L502.46,732Z" style="fill:#171730"/><path d="M505.35,730.36l-9-15.68,1.92-1.11,9,15.69Z" style="fill:#171730"/><path d="M513.42,725.73l-10.85-8.88,2-1.17,6.35,5.4c.68.59,1.37,1.21,2,1.88-.17-.7-.35-1.56-.52-2.58L511,712l2-1.14,2.23,13.84Z" style="fill:#171730"/><path d="M527.83,715.58a8.52,8.52,0,0,1-1.32,2.47,7.11,7.11,0,0,1-1.91,1.6,4.84,4.84,0,0,1-3.41.74,3.54,3.54,0,0,1-2.35-1.76,3.59,3.59,0,0,1-.49-1.75,3.68,3.68,0,0,1,.36-1.68,5.53,5.53,0,0,1,1-1.43,16.49,16.49,0,0,1,1.54-1.27,21.15,21.15,0,0,0,3.06-2.63l-.28-.51a2.44,2.44,0,0,0-1.5-1.35,3.73,3.73,0,0,0-2.57.61,3.93,3.93,0,0,0-1.73,1.63,3.37,3.37,0,0,0,0,2.23l-2,.83a5.54,5.54,0,0,1-.28-2.44,4.28,4.28,0,0,1,1-2.12,8.75,8.75,0,0,1,2.34-1.89,8,8,0,0,1,2.57-1,3.62,3.62,0,0,1,1.83.09,3.55,3.55,0,0,1,1.35,1,12.17,12.17,0,0,1,1.12,1.72l1.47,2.57a29.39,29.39,0,0,0,2.08,3.32,5,5,0,0,0,1.27,1.09l-2,1.15A4.58,4.58,0,0,1,527.83,715.58Zm-2.63-4.21a16.4,16.4,0,0,1-2.73,2.54,8.5,8.5,0,0,0-1.46,1.35,1.91,1.91,0,0,0-.4,1.06,1.83,1.83,0,0,0,.26,1.07,1.88,1.88,0,0,0,1.32,1,2.9,2.9,0,0,0,2-.47,4.58,4.58,0,0,0,1.7-1.62,3.51,3.51,0,0,0,.51-2.07,5.47,5.47,0,0,0-.8-2.1Z" style="fill:#171730"/><path d="M534,713.93l-1.26-2.2,2.19-1.26,1.26,2.2Z" style="fill:#171730"/><path d="M544.52,702.32l2-.84a5.67,5.67,0,0,1,.17,4,5.35,5.35,0,0,1-2.5,2.91,5.66,5.66,0,0,1-4.63.63,7.19,7.19,0,0,1-3.93-3.56,9.31,9.31,0,0,1-1.24-3.57,4.92,4.92,0,0,1,.67-3.14,6.5,6.5,0,0,1,2.32-2.25,5.49,5.49,0,0,1,3.56-.8,5,5,0,0,1,3,1.79l-1.71,1.37a3.56,3.56,0,0,0-1.94-1.18,2.79,2.79,0,0,0-2,.37,3.39,3.39,0,0,0-1.76,2.4,5.7,5.7,0,0,0,1,3.82,5.87,5.87,0,0,0,2.79,2.82,3.29,3.29,0,0,0,2.89-.27,3.14,3.14,0,0,0,1.49-1.79A4,4,0,0,0,544.52,702.32Z" style="fill:#171730"/><path d="M546.47,699.18c-1.21-2.11-1.52-4-.93-5.69a6.06,6.06,0,0,1,2.84-3.31,5.91,5.91,0,0,1,4.72-.67A6.71,6.71,0,0,1,557,692.9a8.78,8.78,0,0,1,1.33,3.83,5.42,5.42,0,0,1-.8,3,6.45,6.45,0,0,1-2.34,2.27,5.86,5.86,0,0,1-4.74.69A7.09,7.09,0,0,1,546.47,699.18Zm2-1.14a5.58,5.58,0,0,0,2.83,2.72,3.66,3.66,0,0,0,4.78-2.75,5.79,5.79,0,0,0-1-3.88,5.44,5.44,0,0,0-2.8-2.64,3.48,3.48,0,0,0-3,.28,3.53,3.53,0,0,0-1.78,2.46A5.56,5.56,0,0,0,548.45,698Z" style="fill:#171730"/><path d="M562.64,697.44l-6.53-11.36,1.72-1,.92,1.59a4.61,4.61,0,0,1,2.38-3.83,4.32,4.32,0,0,1,2.37-.66,3.23,3.23,0,0,1,2,.81,4.71,4.71,0,0,1,2.36-4,4,4,0,0,1,3.14-.56,4.66,4.66,0,0,1,2.57,2.36l4.48,7.8-1.91,1.1L572,682.54a6.11,6.11,0,0,0-1.14-1.56,1.85,1.85,0,0,0-1.15-.43,2.37,2.37,0,0,0-1.33.36,3.12,3.12,0,0,0-1.54,1.94,4.07,4.07,0,0,0,.68,3l3.79,6.61-1.92,1.1-4.25-7.38a3.73,3.73,0,0,0-1.57-1.66,2.08,2.08,0,0,0-1.91.25,3.26,3.26,0,0,0-1.26,1.29,2.78,2.78,0,0,0-.28,1.83,8.26,8.26,0,0,0,1,2.55l3.39,5.9Z" style="fill:#171730"/></g><polygon points="248.77 564.36 188.81 529.75 188.81 323.37 215.24 308.09 367.5 220.2 519.28 307.83 546.19 323.37 546.19 529.75 486.23 564.36 516.27 564.36 546.29 547.03 561.67 538.15 561.67 313.9 546.19 304.97 399.37 220.2 367.5 201.81 335.63 220.2 188.81 304.97 173.33 313.9 173.33 538.1 188.81 547.03 218.84 564.36 248.77 564.36" style="fill:#c2c2ce;stroke:#c2c2ce"/><polygon points="341.84 635.37 367.55 650.19 393.26 635.37 341.84 635.37" style="fill:#c2c2ce;stroke:#c2c2ce"/><path d="M225.25,206.71a3.85,3.85,0,0,1,.95-1.27,40.76,40.76,0,0,1,10,1,100,100,0,0,1,15.36,4.86,102.8,102.8,0,0,1,14,7.24c3,1.82,5.87,3.78,8.7,5.84a168.4,168.4,0,0,1,21.5,18.43c.59.52,1.18,1.53,2.12,1a201.36,201.36,0,0,1,19.51-6.27,144.56,144.56,0,0,1,26.32-4.79,177.74,177.74,0,0,1,20-.34c2.91.12,6,.69,8.83.17a53.61,53.61,0,0,1,9.57-.38c8-.1,15.85,1.14,23.66,2.56A193.81,193.81,0,0,1,433,242.31c2,.6,3.94,1.68,6.05,2,2.6-2.24,4.83-4.9,7.47-7.12,2.94-2.5,5.68-5.23,8.78-7.54a128.53,128.53,0,0,1,19.79-13.55A87.78,87.78,0,0,1,497.6,207c4.19-.91,8.44-1.86,12.75-1.57a71.85,71.85,0,0,1,10.45,22.86,65.52,65.52,0,0,1,1.54,7.87c.33,2.78.55,5.58.64,8.38s.1,5.5-.07,8.24a98.56,98.56,0,0,1-2,16.14c-.31,1.35-.65,2.71-1,4.05-.55,2.23-1.24,4.42-1.84,6.64a153.72,153.72,0,0,1-15.5,34.3c-.43.49-.13,1.11.05,1.65,2.27,7.08,5.09,14.08,9.4,20.18a46.86,46.86,0,0,0,7.81,8.48,31,31,0,0,0,20.31,6.62A43.62,43.62,0,0,0,551.57,349c4.59-1.24,8.7-3.68,12.88-5.87,1.07-.55,2.11-1.4,3.4-1.27.61.06.75,3.45.82,3.91.71,4.93,1.7,9.87,2,14.84a76.56,76.56,0,0,1,0,9.46,87.51,87.51,0,0,1-7.54,30.5,91.23,91.23,0,0,1-4.24,8.3,19.08,19.08,0,0,0-1.58,3,35.17,35.17,0,0,0,4.94-2.58c5.35-2.78,10.57-5.8,15.91-8.56-1.1,3.39-3,6.46-4.58,9.65-3,6.28-6.25,12.46-9.38,18.68a156.67,156.67,0,0,1-26.92,36.58,136.71,136.71,0,0,1-50.54,32.55,16.57,16.57,0,0,0-3.21,1.29c-.05.13-.14.41-.19.55a59.9,59.9,0,0,1,6,.45c6.29.86,12.61,1.5,18.92,2.18a1,1,0,0,1,.58.18c.88.72-1.33,1-1.69,1.15-1,.3-2,.62-3.05,1-2,.67-4,1.38-6.06,2-8.08,2.58-16.13,5.29-24.19,7.92a78.55,78.55,0,0,1-13,3c-8.19,1.76-16.61,1.36-24.92,1.37a50.27,50.27,0,0,1-7.76-.42c-3.26-.09-6.47-.74-9.71-.95-1.22-.27-1.78,1-2.51,1.67-2.56,2.62-5,5.41-8.15,7.41a40.64,40.64,0,0,1-7.21,4.08c-.54.23-1.31.41-1.75-.07-2-1.76-3.84-3.63-5.93-5.23-2.48,1.64-4.84,3.52-7.61,4.68a42.84,42.84,0,0,1-11.09,3.14,45.87,45.87,0,0,1-11.88,0,37,37,0,0,1-12.25-3.64,59.22,59.22,0,0,1-6.43-4.21c-2.27,1.58-4.11,3.68-6.25,5.41-1.09.48-2.14-.47-3.11-.86a42.36,42.36,0,0,1-14.65-11.69c-.37-.35-.63-.9-1.16-1-2.36-.08-4.63.78-7,.82-3.38.22-6.71.84-10.1.8-5.81.08-11.63.09-17.44,0a105.6,105.6,0,0,1-22.51-4.17c-11.81-3.8-23.53-7.86-35.39-11.47l-.08-.55c4.18-.63,8.39-1.14,12.59-1.63s8.11-1.11,12.2-1.25l.86,0-.17-.56c-3.77-1.61-7.71-2.87-11.46-4.54a138.77,138.77,0,0,1-35.33-22.7,158.14,158.14,0,0,1-15-15.23,166.82,166.82,0,0,1-14.29-19.84c-6-9.82-10.68-20.35-16-30.55a36.5,36.5,0,0,1-2.63-5.89c5.49,2.88,10.9,5.92,16.38,8.83a28.28,28.28,0,0,0,4.47,2.32c-1.16-2.59-2.81-4.93-4-7.51a91.14,91.14,0,0,1-5.8-14.32A80.54,80.54,0,0,1,165,378.35c-.33-2.06-.45-4.2-.58-6.28-.22-3.38-.16-6.77-.11-10.16.09-6.79,1.89-13.38,2.86-20.07a3.16,3.16,0,0,1,1.39.2c4.2,2.14,8.25,4.65,12.71,6.25,7.38,2.52,15.51,3.59,23.11,1.43a28.74,28.74,0,0,0,12.77-7.34c7.7-7.09,12-16.94,15.17-26.74.28-1.07,1-2.23.54-3.32-9.28-15.89-16.13-33.38-18.76-51.65a133.78,133.78,0,0,1,0-24.51,73,73,0,0,1,5.44-18.88,92.14,92.14,0,0,1,5.73-10.57m273.12,25.35a93.51,93.51,0,0,0-12.93,7.59,86.18,86.18,0,0,0-13.63,12.4c-5.06,5.85-9.49,12.24-14.8,17.87-.68.17-1.14.88-1.71,1.28a10.6,10.6,0,0,1-7.36,2.87,15.79,15.79,0,0,1-8.1-3.71,30.21,30.21,0,0,1-6.39-7.68c1.68-2.68,4-4.9,6-7.34.48-.68,1.48-1.22,1.36-2.17A177.83,177.83,0,0,0,389.4,240c-7-.47-14.12-.68-21,1.08a53.16,53.16,0,0,0-10.05-1.2c-4.13,0-8.3-.24-12.39.41a42.31,42.31,0,0,0-5.73.48c-15.33,2.07-30.24,6.61-44.56,12.39-.17.68.4,1.17.77,1.64,2.06,2.33,4.25,4.56,6.11,7.06.83,1-.46,2.07-1,2.95-3.1,4.38-7.41,8.66-13,9.25a10.15,10.15,0,0,1-7.58-3c-.49-.36-.87-1-1.48-1.11-6.36-6.41-11.12-14.2-17.47-20.64a75.93,75.93,0,0,0-24.65-17.38c-1.82,2.55-2.23,5.79-2.86,8.79-.82,5.6-.46,11.3-.37,16.95a159.34,159.34,0,0,0,9.13,40.12c1,2.61,1.74,5.38,3.18,7.79,0,1.46.63,3.24-.55,4.41-.83,1.05-2.37,1-3.32,1.78-2.67,10-6.36,19.84-12.34,28.33a43.13,43.13,0,0,1-17.05,14.73c-3.48,1.82-7.37,2.57-11.18,3.36a109.13,109.13,0,0,1-11.15.05,56,56,0,0,1-13.17-3.34,28.29,28.29,0,0,0-3.43-1.39c-1.18,4.92-1,10-1.14,15s1.23,9.63,2.16,14.38l.18-.3a18.82,18.82,0,0,0,1,3.89,102.45,102.45,0,0,0,15.82,30.19,97.5,97.5,0,0,0,6.8,9l-.48.78c-4.42.37-8.67-1.11-12.8-2.44a62.69,62.69,0,0,1-9.23-4.26,24.82,24.82,0,0,0,2.38,4.82,154.57,154.57,0,0,0,14.06,21.65c1.94,2.56,4.12,4.92,6.15,7.41,14.87,16.66,33.9,29.75,55.13,36.84a102.66,102.66,0,0,0,27.2,5.83c0,.84-.73,1.34-1.27,1.88a36.91,36.91,0,0,1-4.91,3.61,29,29,0,0,1-10.25,3.95l.08.72c10.83,3.28,22.23,4.1,33.5,3.79,3.11.09,6.18-.46,9.29-.55a37.51,37.51,0,0,0,5-.63,4.21,4.21,0,0,0-.38-1.31,57.1,57.1,0,0,1-6.07-21.88c-2.34-.25-4.69,0-7-.12a94.88,94.88,0,0,1-12.82-1.08,104.12,104.12,0,0,1-20.08-5c-1.73-.71-3.71-1.07-5.09-2.39a18.1,18.1,0,0,0,13-5.44l.08-.83-1-.32a147,147,0,0,1-34.34-25.25,173.73,173.73,0,0,1-15.76-18.3,150.55,150.55,0,0,1-20.82-38.93,12.86,12.86,0,0,1,3.4-.13,50.72,50.72,0,0,0,19.22-4.7,58.68,58.68,0,0,0,17.87-12.28,32.74,32.74,0,0,0,9.26-15c.67-2.41.3-4.93.46-7.38,2.83-.66,5.74-.9,8.6-1.33,5.56-.12,11.18-.43,16.68.47a71.69,71.69,0,0,1,21.08,6.62,73.07,73.07,0,0,1,18.68,13.4c.46.36.85,1.09,1.56.88a40.36,40.36,0,0,1-.47-9.94,10.6,10.6,0,0,1,1.36-4.68c.26-.53.54-1.24,1.28-1.12a69.64,69.64,0,0,0,11.59,19c3.79,4.15,7.84,8.27,12.93,10.79,1.12.5,2.24,1.31,3.53,1.09,4-7,6.57-14.71,8.86-22.41,2.22-8,4.07-16.08,5.55-24.23l.13.33c.35-1.75.55-3.52.86-5.26.48-3.85,1.48-7.61,1.77-11.48a40.48,40.48,0,0,0,.71-5c.11-.78.07-1.83.94-2.17A11,11,0,0,1,369,317c.75,5.83,1.76,11.62,2.76,17.42,2.45,12.94,5.26,25.89,9.85,38.27a63.79,63.79,0,0,0,5.21,11.21,3.69,3.69,0,0,0,1.82-.3,31.76,31.76,0,0,0,7.59-4.7A66.2,66.2,0,0,0,410.44,362a41.82,41.82,0,0,0,4.18-9l.62-.12a11.85,11.85,0,0,1,2.15,4.89,38.26,38.26,0,0,1-.32,11.1c.69.09,1.08-.58,1.55-1a71.53,71.53,0,0,1,44.05-20.5c7-.13,14.25-.41,21.07,1.6,0,2.42-.24,4.9.4,7.27a30.61,30.61,0,0,0,7,12.53,56.67,56.67,0,0,0,16.85,13,52.13,52.13,0,0,0,22.53,6.29c1.09.11,2.32-.32,3.32.18a102.87,102.87,0,0,1-3.94,10,158.26,158.26,0,0,1-24.58,38.51,146.88,146.88,0,0,1-34.69,29.58c-2.43,1.53-5,2.77-7.42,4.35-.55-.22-1,.31-1.43.57,1.23,1.94,3.32,3.09,5.27,4.2a16.74,16.74,0,0,0,8,1.84,9.08,9.08,0,0,1-3.14,1.64,108.5,108.5,0,0,1-29.8,6.63c-4,.44-8.07,0-12.08.34a60.42,60.42,0,0,1-5.22,20c-.44,1.11-1.31,2.16-1.18,3.43,4.34.41,8.7.44,13,.91,9.21.22,18.52.06,27.53-2.05,2.46-.64,5.08-.87,7.37-2l-.61-.47a32.24,32.24,0,0,1-14.52-7.28c-.6-.61-1.53-1.13-1.44-2.09,11.85-.75,23.36-4.14,34.36-8.5a135.26,135.26,0,0,0,52.21-39.24A157.23,157.23,0,0,0,556,427.25a83.83,83.83,0,0,0,4-7.49,75.75,75.75,0,0,1-8.62,4c-4.54,1.76-9.38,3.12-14.29,2.65,0-.17-.13-.5-.18-.67.45-.49.94-1,1.38-1.46a167.5,167.5,0,0,0,13.33-18.78,100.83,100.83,0,0,0,9.63-22.66,17,17,0,0,0,1.19-3.77c1-4.44,1.82-9,1.07-13.57-.29-1.57-.12-3.18-.31-4.76-.36-2.43,0-5-1-7.29a23.06,23.06,0,0,0-3.18,1.3c-4.14,1.81-8.63,2.53-13,3.4-3.47.23-6.94.16-10.4.08a40,40,0,0,1-20.63-8.66,54.41,54.41,0,0,1-13.25-17c-3.54-6.56-5.79-13.72-7.81-20.86-1.32-.68-3.06-.95-3.74-2.45-.82-1.22-.22-2.64.11-3.91A171.29,171.29,0,0,0,499.67,275c1.46-7.54,2.8-15.14,2.78-22.83.14-6.89-.12-14.07-3.23-20.36a1.57,1.57,0,0,0-.85.22M428.82,407.14c-6.52,2.07-13.12,4.38-18.65,8.51a.72.72,0,0,0-.37,1c3.23,2.31,6.58,4.62,10.41,5.82a16.1,16.1,0,0,0,10.28-.52c3.22-1.3,6.52-2.51,9.36-4.55,6.67-4.58,12.68-10,18.66-15.47l.28-1a209.46,209.46,0,0,0-30,6.2m-150.91-6c-.4.87.58,1.27,1.08,1.79,5.92,5.24,11.76,10.63,18.37,15,2.56,1.75,5.52,2.74,8.36,3.94a16,16,0,0,0,13.07-.35,36.68,36.68,0,0,0,7.85-5c-.07-.73-.73-1.12-1.25-1.52a42.86,42.86,0,0,0-8.6-4.61c-8.84-3.65-18.2-5.85-27.57-7.61a108.21,108.21,0,0,0-11.31-1.68m82.86,5.59a45.46,45.46,0,0,0-13.17,4.56c1.21,1.62,3.15,2.63,4,4.54a30.21,30.21,0,0,0-6.28,5.15c-7.93,7.63-12.89,17.76-16.38,28.06a68.83,68.83,0,0,0-2.64,10.49c-.41,0-.95,0-1.05-.53a97.17,97.17,0,0,1-3.53-11.21,12.28,12.28,0,0,1-.52-3.51l-.61.08a10.09,10.09,0,0,0-1.1,2.79c-3.31,10.05-5.87,20.46-6.21,31.07a61.42,61.42,0,0,0,.69,6.21c-.38,3.78.63,7.5,1.59,11.13,3.07,10.75,9.67,20.73,19.17,26.81.43.33,1.11.55,1.51,0a60.85,60.85,0,0,1,18-11.34c4.67-1.68,9.56-3.09,14.56-2.84a30.27,30.27,0,0,1,8.59,1.3,55.17,55.17,0,0,1,21.94,12.2c.6.43,1.29,1.44,2.09.77,9.92-6.14,16.64-16.58,19.62-27.72.87-3.37,1.8-6.83,1.41-10.34a49.82,49.82,0,0,0-.06-14.88,132.2,132.2,0,0,0-5.64-22.85c-.28-.79-.33-1.75-1.1-2.24-1,2.67-1.44,5.53-2.33,8.25-.58,2-1.44,3.83-1.85,5.84l-.84.26c-.29-.22-.58-.44-.85-.66a16.68,16.68,0,0,0-.63-3.19,85.94,85.94,0,0,0-8.73-21.83,53.34,53.34,0,0,0-15.09-17.06c1.25-1.72,3-2.95,4.38-4.55-.19-.67-1.1-.78-1.63-1.12a42.94,42.94,0,0,0-15.39-4.14C368.76,405.59,364.72,406.14,360.77,406.71Z" style="fill:#171730;stroke:#171730"/><path d="M498.37,232.06a1.57,1.57,0,0,1,.85-.22c3.11,6.29,3.37,13.47,3.23,20.36,0,7.69-1.32,15.29-2.78,22.83a171.29,171.29,0,0,1-9.46,30.32l-.89.57c-2.59-2.2-3.83-5.58-4.45-8.84a20.88,20.88,0,0,1,.67-10c.48-1.39,1.34-2.6,1.95-3.93-1.67-1.43-3.92-1.9-6-2.38-2.24-.38-4.58,0-6.74-.78.35-3.69,1.85-7.15,3.29-10.52a11.89,11.89,0,0,0,.53-1.76,51.66,51.66,0,0,0-20,2.11,3.9,3.9,0,0,1-1.56.06c5.31-5.63,9.74-12,14.8-17.87a86.18,86.18,0,0,1,13.63-12.4A93.51,93.51,0,0,1,498.37,232.06Z" style="fill:#fff;stroke:#fff"/><path d="M237.43,231.89a75.93,75.93,0,0,1,24.65,17.38c6.35,6.44,11.11,14.23,17.47,20.64a2.23,2.23,0,0,1-1.39.15c-6.79-1.86-13.9-3-20.94-2.3.42,2.16,1.64,4.06,2.29,6.16s1.45,3.94,1.4,6c-2.64.8-5.46.42-8.11,1.2a10.93,10.93,0,0,0-4.52,2c.8,1.81,2,3.47,2.37,5.43a20.57,20.57,0,0,1-2,14.71,7,7,0,0,1-2.14,2.21c-1.44-2.41-2.16-5.18-3.18-7.79a159.34,159.34,0,0,1-9.13-40.12c-.09-5.65-.45-11.35.37-16.95C235.2,237.68,235.61,234.44,237.43,231.89Z" style="fill:#fff;stroke:#fff"/><path d="M368.44,241.07c6.84-1.76,14-1.55,21-1.08a177.83,177.83,0,0,1,51.42,13.18c.12,1-.88,1.49-1.36,2.17-2,2.44-4.33,4.66-6,7.34a30.21,30.21,0,0,0,6.39,7.68,15.83,15.83,0,0,0,8.1,3.71,10.6,10.6,0,0,0,7.36-2.87c.57-.4,1-1.11,1.71-1.28a3.9,3.9,0,0,0,1.56-.06,51.66,51.66,0,0,1,20-2.11,11.89,11.89,0,0,1-.53,1.76c-1.44,3.37-2.94,6.83-3.29,10.52,2.16.78,4.5.4,6.74.78,2.08.48,4.33.95,6,2.38-.61,1.33-1.47,2.54-1.95,3.93a20.88,20.88,0,0,0-.67,10c.62,3.26,1.86,6.64,4.45,8.84l.89-.57c-.33,1.27-.93,2.69-.11,3.91.68,1.5,2.42,1.77,3.74,2.45,2,7.14,4.27,14.3,7.81,20.86a54.41,54.41,0,0,0,13.25,17,40,40,0,0,0,20.63,8.66c3.46.08,6.93.15,10.4-.08,4.4-.87,8.89-1.59,13-3.4a23.06,23.06,0,0,1,3.18-1.3c1,2.32.63,4.86,1,7.29.19,1.58,0,3.19.31,4.76.75,4.55-.1,9.13-1.07,13.57a17,17,0,0,1-1.19,3.77c0-.78,0-1.56,0-2.34a23.65,23.65,0,0,1-6,8c-1.7,1.31-3.34,2.94-5.52,3.37.23-2.17.87-4.26,1.29-6.39.65-2.9.3-5.89.4-8.83,0-1.5.18-3.08-.41-4.5-2.29-.16-4.55.39-6.84.34-5.34-.38-10.76-.28-16-1.62a53.18,53.18,0,0,1-13.94-5.77A39,39,0,0,1,501,351.9a53.82,53.82,0,0,1-7-21.3c-.19-1.15-.28-2.58-1.46-3.19-5.8-3.59-12.54-5.43-19.26-6.32-4-.5-8.09-.16-12.13-.07.33-1.56,1.6-2.67,2.49-3.92,2.25-2.93,4.83-5.58,7.26-8.35-.58-.9-1.85-.67-2.75-.82-15.29-.59-30.57,3.09-44.32,9.67a121.21,121.21,0,0,0-18.39,10.69,55,55,0,0,1-4.72,3.33c-1.38-5.11-.1-10.37.45-15.49-3,.52-5.74,2-8.52,3.24A79.2,79.2,0,0,0,373,332a4.58,4.58,0,0,0-1.22,2.43c-1-5.8-2-11.59-2.76-17.42a11,11,0,0,0-.55-3.38c-.87.34-.83,1.39-.94,2.18a40.59,40.59,0,0,1-.71,5c-.29,3.87-1.29,7.63-1.77,11.48-.31,1.74-.51,3.51-.86,5.26l-.13-.33a16.75,16.75,0,0,0,.11-4.3c-1-1.67-2.85-2.63-4.31-3.89a85,85,0,0,0-19.19-11,32.36,32.36,0,0,0-5.52-2.11c.5,4.1,1.47,8.18,1.23,12.33a8.49,8.49,0,0,1-.82,3.28c-2.88-1.81-5.51-4-8.39-5.81-12.88-8.33-27.35-14.47-42.56-16.82a97.07,97.07,0,0,0-13.07-1c-2,0-4.14-.14-6,.82,2,2.36,4.19,4.53,6.07,7,1.23,1.67,3,3.08,3.54,5.17-4.21.38-8.52-.4-12.66.69A51,51,0,0,0,245.4,328c-1.12.63-1.25,2-1.48,3.16a54.29,54.29,0,0,1-6.8,19.57A42.1,42.1,0,0,1,216,368.35a49.71,49.71,0,0,1-12.61,3.31c-5.73,1.19-11.61.23-17.38.73-1.09,3.39-.62,7.07-.33,10.56.21,3.09,1.08,6.08,1.45,9.14a22.66,22.66,0,0,1-7.37-5.41,25,25,0,0,1-4.37-6.56c.05.82.11,1.64.17,2.47l-.18.29c-.93-4.75-2.42-9.49-2.16-14.38s0-10.11,1.14-15a29.11,29.11,0,0,1,3.44,1.39,55.89,55.89,0,0,0,13.16,3.34,109.13,109.13,0,0,0,11.15-.05c3.81-.79,7.7-1.54,11.18-3.36a43.05,43.05,0,0,0,17.05-14.73c6-8.49,9.67-18.37,12.34-28.33,1-.81,2.49-.72,3.32-1.78,1.19-1.17.52-2.95.55-4.41a7,7,0,0,0,2.14-2.21,20.57,20.57,0,0,0,2-14.71c-.41-2-1.57-3.62-2.37-5.43a10.92,10.92,0,0,1,4.53-2c2.64-.78,5.47-.4,8.1-1.2,0-2.09-.8-4.07-1.4-6s-1.87-4-2.29-6.16c7-.74,14.15.44,20.94,2.3a2.23,2.23,0,0,0,1.39-.15c.61.1,1,.75,1.48,1.11a10.12,10.12,0,0,0,7.58,3c5.6-.59,9.91-4.87,13-9.25.51-.88,1.81-1.9,1-2.95-1.86-2.5-4-4.73-6.11-7.05-.37-.48-.94-1-.77-1.65,14.32-5.78,29.23-10.32,44.56-12.39a40.77,40.77,0,0,1,5.74-.47c4.08-.66,8.25-.38,12.38-.42A53.16,53.16,0,0,1,368.44,241.07Z" style="fill:#c2c2ce;stroke:#c2c2ce"/><path d="M265.59,308.68c1.83-1,4-.78,6-.82a97.07,97.07,0,0,1,13.07,1c15.21,2.35,29.68,8.49,42.56,16.82,2.88,1.82,5.51,4,8.39,5.81a8.49,8.49,0,0,0,.82-3.28c.24-4.15-.73-8.23-1.23-12.33a32.36,32.36,0,0,1,5.52,2.11,85,85,0,0,1,19.19,11c1.46,1.26,3.27,2.22,4.31,3.89a16.75,16.75,0,0,1-.11,4.3c-1.48,8.15-3.33,16.25-5.55,24.23-2.29,7.7-4.84,15.41-8.86,22.41-1.29.22-2.41-.59-3.53-1.09-5.09-2.52-9.14-6.64-12.93-10.79a69.64,69.64,0,0,1-11.59-19c-.74-.12-1,.59-1.28,1.12a10.6,10.6,0,0,0-1.36,4.68,40.36,40.36,0,0,0,.47,9.94c-.71.21-1.1-.52-1.56-.88a72.83,72.83,0,0,0-18.68-13.4,71.69,71.69,0,0,0-21.08-6.62c-5.5-.9-11.12-.59-16.68-.47-2.86.43-5.77.67-8.6,1.33-.16,2.45.21,5-.46,7.38a32.74,32.74,0,0,1-9.26,15,58.68,58.68,0,0,1-17.87,12.28,50.72,50.72,0,0,1-19.22,4.7,12.86,12.86,0,0,0-3.4.13,150.55,150.55,0,0,0,20.82,38.93,173.73,173.73,0,0,0,15.76,18.3,147,147,0,0,0,34.34,25.25c.27.34.52.7.77,1.07a5.83,5.83,0,0,1-2.16.13,113.56,113.56,0,0,1-42.87-18.08,132.13,132.13,0,0,1-17.76-14.42,111.88,111.88,0,0,1-12.41-13.7,97.5,97.5,0,0,1-6.8-9,102.45,102.45,0,0,1-15.82-30.19,18.89,18.89,0,0,1-1-3.88c-.06-.83-.12-1.65-.17-2.47a25,25,0,0,0,4.37,6.56,22.66,22.66,0,0,0,7.37,5.41c-.37-3.06-1.24-6-1.45-9.14-.29-3.49-.76-7.17.33-10.56,5.77-.5,11.65.46,17.38-.73A49.82,49.82,0,0,0,216,368.35a42.1,42.1,0,0,0,21.16-17.61,54.29,54.29,0,0,0,6.8-19.57c.22-1.14.36-2.53,1.48-3.16a51,51,0,0,1,17.14-6.48c4.14-1.09,8.45-.31,12.66-.69-.54-2.09-2.31-3.5-3.54-5.17C269.78,313.21,267.58,311,265.59,308.68Z" style="fill:#fff;stroke:#fff"/><path d="M423.79,317.6c13.76-6.58,29-10.26,44.33-9.67.9.15,2.17-.08,2.75.82-2.43,2.77-5,5.42-7.26,8.35-.89,1.25-2.16,2.36-2.49,3.92,4-.09,8.1-.43,12.13.07,6.72.89,13.46,2.73,19.26,6.32,1.18.61,1.27,2,1.46,3.19a54,54,0,0,0,7,21.3,39.1,39.1,0,0,0,13.17,13.19,53.18,53.18,0,0,0,13.94,5.77c5.22,1.34,10.64,1.24,16,1.62,2.29,0,4.55-.5,6.84-.34.59,1.42.38,3,.41,4.5-.1,2.94.25,5.93-.4,8.83-.42,2.13-1.06,4.22-1.29,6.39,2.18-.43,3.82-2.06,5.52-3.37a23.65,23.65,0,0,0,6-8q0,1.17,0,2.34a100.83,100.83,0,0,1-9.63,22.66,167.5,167.5,0,0,1-13.33,18.78c-.44.5-.93,1-1.38,1.46a126,126,0,0,1-16,16.42,133.91,133.91,0,0,1-35.3,22.09,126.6,126.6,0,0,1-20.49,6.64,2.82,2.82,0,0,1-1.85-.24c2.38-1.58,5-2.82,7.42-4.35a146.88,146.88,0,0,0,34.69-29.58,158.07,158.07,0,0,0,24.58-38.51,102.87,102.87,0,0,0,3.94-10c-1-.5-2.23-.07-3.32-.18A52.13,52.13,0,0,1,508,381.77a56.67,56.67,0,0,1-16.85-13,30.61,30.61,0,0,1-7-12.53c-.64-2.37-.38-4.85-.4-7.27-6.82-2-14-1.73-21.07-1.6a71.53,71.53,0,0,0-44.05,20.5c-.47.37-.86,1-1.55,1a38.26,38.26,0,0,0,.32-11.1,11.85,11.85,0,0,0-2.15-4.89l-.62.12a41.82,41.82,0,0,1-4.18,9,66.2,66.2,0,0,1-14.17,16.92,32,32,0,0,1-7.59,4.7,3.69,3.69,0,0,1-1.82.3,63.79,63.79,0,0,1-5.21-11.21c-4.59-12.38-7.41-25.33-9.85-38.27A4.58,4.58,0,0,1,373,332a79.2,79.2,0,0,1,19.6-12.59c2.78-1.21,5.5-2.73,8.52-3.24-.55,5.12-1.83,10.38-.45,15.49a56.62,56.62,0,0,0,4.72-3.33A121.6,121.6,0,0,1,423.79,317.6Z" style="fill:#fff;stroke:#fff"/><path d="M428.82,407.14a209.46,209.46,0,0,1,30-6.2l-.28,1c-6,5.44-12,10.89-18.66,15.47-2.84,2-6.14,3.25-9.36,4.55a16.1,16.1,0,0,1-10.28.52c-3.83-1.2-7.18-3.51-10.41-5.82a.72.72,0,0,1,.37-1C415.7,411.52,422.3,409.21,428.82,407.14Z" style="fill:#171730;stroke:#171730"/><path d="M277.91,401.12a108.21,108.21,0,0,1,11.31,1.68c9.37,1.76,18.73,4,27.57,7.61a42.86,42.86,0,0,1,8.6,4.61c.52.4,1.18.79,1.25,1.52a36.68,36.68,0,0,1-7.85,5,16,16,0,0,1-13.07.35c-2.84-1.2-5.8-2.19-8.36-3.94-6.61-4.38-12.45-9.77-18.37-15C278.49,402.39,277.51,402,277.91,401.12Z" style="fill:#171730;stroke:#171730"/><path d="M360.77,406.71c4-.58,8-1.12,12-.47a42.94,42.94,0,0,1,15.39,4.14c.53.34,1.43.45,1.63,1.12-1.37,1.6-3.13,2.83-4.38,4.55a78.35,78.35,0,0,0-15.17,27.07,28.57,28.57,0,0,1-1.64,4.51c-2.27-7.09-4.82-14.16-8.66-20.57-2.4-4-4.89-8-8.29-11.25-.87-1.91-2.81-2.92-4-4.54A45.46,45.46,0,0,1,360.77,406.71Z" style="fill:#c2c2ce;stroke:#c2c2ce"/><path d="M345.35,421a30.21,30.21,0,0,1,6.28-5.15c3.4,3.23,5.88,7.26,8.28,11.25,3.85,6.41,6.39,13.48,8.66,20.57a27.61,27.61,0,0,0,1.64-4.51,78.35,78.35,0,0,1,15.17-27.07,53.34,53.34,0,0,1,15.09,17.06,85.94,85.94,0,0,1,8.73,21.83,16.68,16.68,0,0,1,.63,3.19,13.88,13.88,0,0,0,.24,1.8,7.43,7.43,0,0,0,1.11-.26c.13-.38.25-.76.34-1.14.41-2,1.27-3.88,1.85-5.84.89-2.72,1.32-5.58,2.33-8.25.77.49.82,1.45,1.1,2.24a132.2,132.2,0,0,1,5.64,22.85,49.81,49.81,0,0,1,.06,14.88c.39,3.51-.53,7-1.41,10.34-3,11.14-9.7,21.58-19.62,27.72-.8.67-1.49-.34-2.09-.77a55.17,55.17,0,0,0-21.94-12.2,30.21,30.21,0,0,0-8.59-1.3c-5-.25-9.89,1.16-14.56,2.84a60.85,60.85,0,0,0-18,11.34c-.39.52-1.08.3-1.51,0-9.5-6.08-16.1-16.06-19.17-26.81-1-3.63-2-7.35-1.59-11.13a61.42,61.42,0,0,1-.69-6.21c.34-10.61,2.9-21,6.21-31.07a10.41,10.41,0,0,1,1.1-2.79l.61-.08a12.28,12.28,0,0,0,.52,3.51A97.17,97.17,0,0,0,325.28,459c.1.51.64.5,1.06.53A67.65,67.65,0,0,1,329,449c3.49-10.3,8.45-20.43,16.38-28.06m19,48.4a19.59,19.59,0,0,0-7.35,2.73,12.93,12.93,0,0,0-6.25,8.07,10.14,10.14,0,0,0,2.06,8.31c1.74,2.14,3,4.63,5.07,6.54a26.25,26.25,0,0,0,10.61,6.17c1.34.41,2.6-.48,3.77-1a30.72,30.72,0,0,0,9.73-8.45c1.29-1.81,3.06-3.3,4-5.37a9.94,9.94,0,0,0-.58-9.54,14.9,14.9,0,0,0-6.37-5.57A24.37,24.37,0,0,0,364.33,469.36Z" style="fill:#fff;stroke:#fff"/><path d="M176.62,419.75a62.69,62.69,0,0,0,9.23,4.26c4.14,1.33,8.38,2.81,12.8,2.44l.48-.78a111.88,111.88,0,0,0,12.41,13.7,132.13,132.13,0,0,0,17.76,14.42,113.56,113.56,0,0,0,42.87,18.08,5.83,5.83,0,0,0,2.16-.13c-.25-.37-.5-.73-.77-1.07l1,.32-.08.83a18.1,18.1,0,0,1-13,5.44c1.38,1.32,3.36,1.68,5.09,2.39a104.12,104.12,0,0,0,20.08,5,94.88,94.88,0,0,0,12.82,1.08c2.34.1,4.69-.13,7,.12a57.1,57.1,0,0,0,6.07,21.88,4.21,4.21,0,0,1,.38,1.31,37.51,37.51,0,0,1-5,.63c-3.11.09-6.18.64-9.29.55-11.27.31-22.67-.51-33.5-3.79l-.08-.72a29,29,0,0,0,10.25-3.95,36.91,36.91,0,0,0,4.91-3.61c.54-.54,1.28-1,1.27-1.88a102.66,102.66,0,0,1-27.2-5.83c-21.23-7.09-40.26-20.18-55.13-36.84-2-2.49-4.21-4.85-6.15-7.41A154.57,154.57,0,0,1,179,424.57,24.82,24.82,0,0,1,176.62,419.75Z" style="fill:#c2c2ce;stroke:#c2c2ce"/><path d="M551.31,423.77a75.75,75.75,0,0,0,8.62-4c-1,2.63-2.67,5-4,7.49a157.86,157.86,0,0,1-14.38,21.31,135.26,135.26,0,0,1-52.21,39.24c-11,4.36-22.51,7.75-34.36,8.5-.09,1,.84,1.48,1.44,2.08A32.15,32.15,0,0,0,471,505.67l.61.47c-2.29,1.16-4.91,1.39-7.37,2-9,2.11-18.32,2.27-27.53,2.05-4.33-.47-8.69-.5-13-.91-.13-1.27.74-2.32,1.18-3.43a60.42,60.42,0,0,0,5.22-20c4-.29,8.07.1,12.08-.34a108.5,108.5,0,0,0,29.8-6.63,9.08,9.08,0,0,0,3.14-1.64,16.74,16.74,0,0,1-8-1.84c-2-1.11-4-2.26-5.27-4.2.41-.26.88-.79,1.43-.57a2.82,2.82,0,0,0,1.85.24,126.6,126.6,0,0,0,20.49-6.64,133.91,133.91,0,0,0,35.3-22.09,126,126,0,0,0,16-16.42c0,.17.13.5.18.67C541.92,426.89,546.77,425.53,551.31,423.77Z" style="fill:#c2c2ce;stroke:#c2c2ce"/><path d="M409.83,458.13c.27.22.56.44.85.66l.84-.26c-.1.38-.21.76-.34,1.14a7.43,7.43,0,0,1-1.11.26A13.88,13.88,0,0,1,409.83,458.13Z" style="fill:#8d8d8d;stroke:#8d8d8d"/><path d="M364.33,469.36A24.37,24.37,0,0,1,379,471.23a14.9,14.9,0,0,1,6.37,5.57,9.94,9.94,0,0,1,.58,9.54c-.93,2.07-2.7,3.56-4,5.37a30.6,30.6,0,0,1-9.73,8.45c-1.17.54-2.43,1.43-3.78,1a26.28,26.28,0,0,1-10.6-6.17c-2-1.91-3.33-4.4-5.07-6.54a10.11,10.11,0,0,1-2.06-8.31,12.93,12.93,0,0,1,6.25-8.07,19.59,19.59,0,0,1,7.35-2.73m0,4.85c-1.84.59-4.5,1.65-4.32,4-.13,1.67,1.62,2.57,2.88,3.24a16.1,16.1,0,0,0,10.72.35,6.5,6.5,0,0,0,3.9-3.21,3.57,3.57,0,0,0-1.89-3.25C372.24,473.46,368.09,473.38,364.37,474.21Z" style="fill:#171730;stroke:#171730"/><path d="M364.37,474.21c3.72-.83,7.87-.75,11.29,1.11a3.57,3.57,0,0,1,1.89,3.25,6.5,6.5,0,0,1-3.9,3.21,16.1,16.1,0,0,1-10.72-.35c-1.26-.67-3-1.57-2.88-3.24C359.87,475.86,362.53,474.8,364.37,474.21Z" style="fill:#c2c2ce;stroke:#c2c2ce"/><polygon points="319.59 422.12 319.59 402.08 302.23 392.06 284.87 402.08 284.87 422.12 302.23 432.14 319.59 422.12" style="fill:#fff;stroke:#000;stroke-miterlimit:10"/><polygon points="451.61 422.12 451.61 402.08 434.25 392.06 416.89 402.08 416.89 422.12 434.25 432.14 451.61 422.12" style="fill:#fff;stroke:#000;stroke-miterlimit:10"/><path d="M219.54,627h-9.61V602.68q0-5.79-2.11-8.65a7.44,7.44,0,0,0-6.4-2.86,9.1,9.1,0,0,0-7.15,3.27,12.32,12.32,0,0,0-2.86,8.45V627h-9.65V565.6h9.65v25.66h.16a16.34,16.34,0,0,1,5.82-5.84,15.52,15.52,0,0,1,7.76-1.91q7.22,0,10.8,4.36t3.59,13Z" style="fill:#171730"/><path d="M267.72,608.28h-29q.27,6,3.5,9.2t9.1,3.16a18.56,18.56,0,0,0,5.37-.95,22.12,22.12,0,0,0,6.1-3.1l4.29,6a27.67,27.67,0,0,1-17.1,5.43q-9.89,0-15.4-5.71t-5.55-16q0-10.22,5.71-16.51a18.88,18.88,0,0,1,14.63-6.31q8.59,0,13.48,5.38t4.88,15.21Zm-9.24-6.65c0-3.65-.84-6.4-2.43-8.27a8.42,8.42,0,0,0-6.77-2.79,9.36,9.36,0,0,0-7,3,13.76,13.76,0,0,0-3.52,8.06Z" style="fill:#171730"/><path d="M313.15,584.53,299,605.6,313,627H301.81l-7.34-12.72-.83-1.56c-.31-.58-.64-1.24-1-2h-.21l-.66,1.36c-.29.58-.67,1.27-1.16,2.08L283.16,627h-11.1l14.43-21-13.7-21.52H284l7.26,13.37c.35.65.67,1.27.95,1.87s.55,1.17.79,1.74h.2a18.25,18.25,0,0,1,.92-1.82q.5-.9,1-1.83l7.5-13.33Z" style="fill:#171730"/><path d="M353.32,577.27H331.67v17.27h19.94v8.27H331.67V627h-9.84V568.93h31.49Z" style="fill:#171730"/><path d="M368.27,577a6,6,0,0,1-4.36-1.66,5.83,5.83,0,0,1,0-8.27,6.11,6.11,0,0,1,4.36-1.62,6.18,6.18,0,0,1,4.38,1.62,5.81,5.81,0,0,1,0,8.29A6.15,6.15,0,0,1,368.27,577ZM373,627h-9.64V584.53H373Z" style="fill:#171730"/><path d="M424.4,627h-9.64v-24c0-3.95-.73-6.91-2.17-8.9a7.47,7.47,0,0,0-6.43-3,9.07,9.07,0,0,0-7.17,3.29,12.27,12.27,0,0,0-2.84,8.31V627h-9.64V584.53h9.64v6.89h.17a16.11,16.11,0,0,1,5.81-5.92,15.85,15.85,0,0,1,8-2q7,0,10.64,4.44T424.4,601Z" style="fill:#171730"/><path d="M465.5,620.44a15.3,15.3,0,0,1-5.76,5.71,16.8,16.8,0,0,1-8.19,1.9,16,16,0,0,1-12.82-5.67q-4.85-5.67-4.85-15.6,0-10.57,5.33-16.92a17.54,17.54,0,0,1,14.13-6.35,15.42,15.42,0,0,1,7.29,1.61A11.88,11.88,0,0,1,465.5,590h.16V565.6h9.68V627h-9.68v-6.6Zm-21.77-14.07c0,4.41,1,7.84,3,10.32a9.67,9.67,0,0,0,8,3.7,9.93,9.93,0,0,0,8.05-3.68,14.44,14.44,0,0,0,3.06-9.53v-4.9a11.22,11.22,0,0,0-2.94-7.92,9.84,9.84,0,0,0-7.56-3.19,10.08,10.08,0,0,0-8.47,4.06Q443.74,599.28,443.73,606.37Z" style="fill:#171730"/><path d="M524.3,608.28h-29q.29,6,3.51,9.2t9.1,3.16a18.56,18.56,0,0,0,5.37-.95,22.12,22.12,0,0,0,6.1-3.1l4.29,6a27.67,27.67,0,0,1-17.1,5.43q-9.89,0-15.4-5.71t-5.55-16q0-10.22,5.71-16.51a18.88,18.88,0,0,1,14.63-6.31q8.6,0,13.48,5.38t4.88,15.21Zm-9.24-6.65c0-3.65-.84-6.4-2.43-8.27a8.44,8.44,0,0,0-6.77-2.79,9.34,9.34,0,0,0-7,3,13.83,13.83,0,0,0-3.53,8.06Z" style="fill:#171730"/><path d="M557.7,592.63c-.55-.13-1.07-.24-1.58-.32a11.82,11.82,0,0,0-1.79-.12,9.09,9.09,0,0,0-7.84,3.83q-2.78,3.83-2.78,10v21H534V584.53h9.68v8.19h.17a13.45,13.45,0,0,1,4.37-6.67,11,11,0,0,1,6.89-2.25,16,16,0,0,1,2,.12,11.23,11.23,0,0,1,1.78.37Z" style="fill:#171730"/></svg>